<svg enable-background="new 0 0 172 32" height="32px" id="Слой_1" version="1.1" viewBox="0 0 172 32" width="172px" x="0px" xml:space="preserve" xmlns="http://www.w3.org/2000/svg" xmlns:xlink="http://www.w3.org/1999/xlink" y="0px">
<path clip-rule="evenodd" d="M22.612,14.817l-0.415,2.468l-5.329,0.01l-0.438,2.417
	c0.399-0.103,0.998-0.144,1.495-0.144c2.356,0,4.321,1.246,4.338,3.843c0.012,1.596-0.7,2.77-1.715,3.555
	c-1.326,1.059-3.272,1.438-5.13,1.438c-1.418,0.002-2.775-0.094-3.392-0.194l2.412-13.378L22.612,14.817z M15.241,26.134
	L15.241,26.134c0.319,0.058,0.617,0.058,1.04,0.056c1.399,0,2.964-0.842,2.952-2.451c-0.012-1.32-0.91-1.992-2.168-1.992
	c-0.334,0-0.739,0.04-1.057,0.097L15.241,26.134z" fill="#0074BC" fill-rule="evenodd"></path>
<path clip-rule="evenodd" d="M27.432,26.4L27.432,26.4c0.919-0.003,1.929-0.722,1.921-1.86
	c-0.007-0.722-0.45-1.136-1.125-1.136c-0.855,0.004-1.57,0.758-1.743,1.379c-0.08,0.239-0.113,0.431-0.111,0.739
	c0.004,0.513,0.371,0.878,1.041,0.878H27.432z M27.809,18.496L26.9,22.248h0.021c0.633-0.557,1.649-0.88,2.544-0.88
	c1.559,0,2.683,0.954,2.696,2.666c0.018,2.1-1.74,4.396-5.308,4.398c-1.517,0.003-3.294-0.338-3.311-2.37
	c-0.003-0.534,0.128-1.396,0.246-1.948l1.208-5.614L27.809,18.496z M37.219,18.485L37.219,18.485l-1.764,9.757l-3.01,0.002
	l1.764-9.756L37.219,18.485z" fill="#0074BC" fill-rule="evenodd"></path>
<path clip-rule="evenodd" d="M44.726,27.929c-0.61,0.301-1.611,0.519-2.771,0.519
	c-2.413,0.004-4.119-1.468-4.139-4.002c-0.026-3.47,2.602-6.18,6.312-6.184c0.838,0,1.565,0.156,2,0.314l-0.704,2.212
	c-0.34-0.133-0.741-0.232-1.318-0.232c-2.031,0.002-3.295,1.734-3.279,3.568c0.009,1.342,0.872,2.014,1.932,2.01
	c0.836,0,1.428-0.201,1.936-0.395L44.726,27.929z" fill="#0074BC" fill-rule="evenodd"></path>
<path clip-rule="evenodd" d="M46.242,28.227l1.164-6.583c0.204-1.235,0.358-2.31,0.467-3.17
	l2.477-0.003l-0.166,1.576h0.036c0.869-1.259,2.06-1.796,3.312-1.799c1.557-0.002,2.25,0.973,2.335,1.832
	c0.867-1.266,2.076-1.837,3.336-1.837c1.516-0.022,2.4,0.95,2.413,2.609c0.002,0.42-0.073,1.17-0.169,1.673l-1.013,5.684
	l-2.768,0.006l0.933-5.33c0.081-0.393,0.13-0.817,0.128-1.193c-0.004-0.679-0.31-1.155-0.983-1.155
	c-0.962,0.002-1.891,1.296-2.254,3.248l-0.774,4.436l-2.773,0.002l0.948-5.369c0.081-0.391,0.136-0.771,0.134-1.109
	c-0.009-0.66-0.233-1.2-0.933-1.2c-0.972,0.003-1.975,1.369-2.319,3.295l-0.764,4.385L46.242,28.227z" fill="#0074BC" fill-rule="evenodd"></path>
<path clip-rule="evenodd" d="M61.459,32l1.763-9.773c0.214-1.159,0.426-2.779,0.54-3.771
	l2.569-0.002l-0.157,1.415h0.045c0.789-1.062,1.936-1.638,3.113-1.64c2.115-0.004,3.147,1.688,3.164,3.679
	c0.028,3.394-2.197,6.517-5.596,6.521c-0.787,0.001-1.47-0.205-1.812-0.403h-0.042l-0.725,3.972L61.459,32z M65.469,25.771
	L65.469,25.771c0.32,0.294,0.758,0.483,1.318,0.48c1.536-0.003,2.719-2.199,2.7-4.115c-0.007-0.773-0.336-1.593-1.274-1.59
	c-1.077,0-2.102,1.2-2.405,3.132L65.469,25.771z" fill="#0074BC" fill-rule="evenodd"></path>
<path clip-rule="evenodd" d="M86.48,13.84c0.857,0.237,2.052,0.171,2.914,0.274
	c1.49,0.137,2.594,0.515,3.439,1.291c1.161,0.973,1.595,2.628,1.609,4.505c0.029,3.736-1.566,8.477-6.053,8.485
	c-2.474,0.004-3.982-1.514-4.001-4.049c-0.022-2.871,1.968-5.923,5.074-5.925c1.34-0.002,2.185,0.637,2.59,1.595h0.072
	c0-0.202-0.002-0.44,0.023-0.604c-0.006-0.72-0.278-1.588-0.879-2.114c-0.656-0.611-1.598-0.793-2.817-0.889
	c-0.618-0.039-1.217-0.079-1.913-0.211L86.48,13.84z M88.81,26.277L88.81,26.277c1.535-0.002,2.352-2.43,2.366-3.723
	c-0.012-0.963-0.396-1.999-1.473-1.999c-1.618,0.002-2.396,2.314-2.34,3.828c0.007,0.997,0.414,1.896,1.423,1.894H88.81z" fill="#0074BC" fill-rule="evenodd"></path>
<path clip-rule="evenodd" d="M103.055,27.596c-1.129,0.581-2.548,0.779-3.624,0.782
	c-2.784,0.002-4.234-1.59-4.252-4.124c-0.025-2.969,2.102-6.062,5.631-6.064c1.97,0,3.396,1.092,3.414,2.908
	c0.022,2.489-2.392,3.39-6.295,3.298c0.003,0.281,0.104,0.71,0.31,0.993c0.379,0.495,1.034,0.758,1.874,0.758
	c1.062-0.001,1.956-0.244,2.728-0.618L103.055,27.596z M101.529,21.1L101.529,21.1c-0.003-0.478-0.405-0.818-1.063-0.816
	c-1.341,0-2.09,1.096-2.276,2.017c2.231,0.013,3.348-0.306,3.34-1.183V21.1z" fill="#0074BC" fill-rule="evenodd"></path>
<polygon clip-rule="evenodd" fill="#0074BC" fill-rule="evenodd" points="109.209,18.395 108.56,21.988 111.528,21.981 
	112.175,18.393 115.052,18.387 113.276,28.147 110.404,28.148 111.124,24.191 108.156,24.196 107.454,28.154 104.578,28.157 
	106.339,18.399 "></polygon>
<path clip-rule="evenodd" d="M119.772,18.385l-0.908,3.749h0.027
	c0.604-0.561,1.661-0.881,2.553-0.881c1.583-0.004,2.825,0.957,2.84,2.662c0.016,2.223-1.798,4.395-5.413,4.399
	c-1.556,0.003-3.372-0.352-3.387-2.442c-0.006-0.525,0.146-1.315,0.285-1.901l1.204-5.586H119.772z M119.415,26.277L119.415,26.277
	c0.979,0,2.062-0.693,2.054-1.834c-0.004-0.737-0.442-1.156-1.163-1.156c-0.955,0-1.625,0.777-1.839,1.316
	c-0.105,0.262-0.14,0.438-0.139,0.765c0.004,0.551,0.391,0.911,1.07,0.909H119.415z" fill="#0074BC" fill-rule="evenodd"></path>
<path clip-rule="evenodd" d="M126.885,18.831c0.774-0.378,1.958-0.675,3.148-0.678
	c2.109-0.003,3.248,1.032,3.266,2.671c0.01,1.713-1.471,2.573-3.279,3.307c-1.076,0.484-1.791,0.863-1.783,1.422
	c0.006,0.394,0.284,0.673,1,0.673c1.021-0.001,2.032-0.417,2.664-0.753l0.336,2.028c-0.909,0.479-2.263,0.836-3.439,0.817
	c-2.152,0.004-3.52-0.911-3.529-2.665c-0.018-2.031,1.753-2.774,3.439-3.472c0.952-0.398,1.812-0.756,1.809-1.281
	c-0.006-0.372-0.404-0.638-1.062-0.652c-0.825,0-1.611,0.239-2.245,0.523L126.885,18.831z" fill="#0074BC" fill-rule="evenodd"></path>
<path clip-rule="evenodd" d="M138.116,18.361l-0.929,5.227
	c-0.078,0.435-0.138,0.913-0.138,1.275c0.005,0.635,0.254,1.141,0.991,1.139c0.979,0,1.962-1.187,2.334-3.135l0.82-4.51l2.862-0.008
	l-1.196,6.588c-0.212,1.238-0.364,2.289-0.457,3.177l-2.57,0.001l0.162-1.607h-0.039c-0.984,1.284-2.175,1.825-3.348,1.825
	c-1.561,0.001-2.501-0.882-2.517-2.73c-0.003-0.539,0.05-1.113,0.183-1.79l0.974-5.449L138.116,18.361z" fill="#0074BC" fill-rule="evenodd"></path>
<path clip-rule="evenodd" d="M78.495,18.465c-2.992,0.379-5.01,2.96-5.06,6.012
	c-0.038,2.372,1.558,3.96,4.003,3.959c3.455-0.003,5.771-2.717,5.83-6.064c0.013-0.775-0.159-1.495-0.504-2.104l-2.546,1.237
	c0.096,0.278,0.137,0.585,0.132,0.891c-0.026,1.623-0.949,3.877-2.478,3.88c-1.09,0.002-1.537-0.873-1.516-1.863
	c0.036-1.76,0.964-3.654,2.516-3.837l-0.145,0.798l5.358-2.963l-5.996-0.653L78.495,18.465z" fill="#0074BC" fill-rule="evenodd"></path>
<polygon fill="#BE5427" points="150.534,12.562 145.685,18.485 162.218,12.868 "></polygon>
<polygon fill="#F36F20" points="77.824,13.016 162.218,13.016 162.218,0.064 77.642,0 81.956,6.879 "></polygon>
<g>
<path d="M90.859,4.58l-0.645,3.341c-0.123,0.628-0.194,1.164-0.27,1.61L88.659,9.53l0.095-0.811h-0.018
		c-0.513,0.646-1.116,0.92-1.714,0.919c-0.791-0.001-1.267-0.448-1.265-1.389c0-0.275,0.032-0.567,0.102-0.911l0.522-2.765
		l1.458,0.002l-0.501,2.653c-0.038,0.222-0.069,0.464-0.069,0.647c-0.001,0.324,0.122,0.577,0.49,0.578
		c0.498,0,1.01-0.596,1.202-1.59l0.438-2.287L90.859,4.58z" fill="#FFFFFF"></path>
<path d="M92.057,6.506l0.574,0.001c0.488,0.002,1.034-0.141,1.04-0.514c0-0.325-0.318-0.477-0.711-0.478
		c-0.383-0.001-0.871,0.129-1.225,0.312l-0.242-0.891c0.496-0.263,1.162-0.454,1.805-0.453c0.806,0.001,1.911,0.255,1.91,1.288
		c-0.001,0.688-0.642,1.054-1.269,1.173v0.011c0.533,0.092,1.114,0.457,1.113,1.145c-0.001,1.196-1.379,1.528-2.365,1.526
		c-0.726,0-1.415-0.144-1.965-0.511l0.376-0.971c0.397,0.245,0.934,0.417,1.43,0.418c0.466,0.001,0.981-0.17,0.986-0.565
		c0-0.416-0.479-0.548-1.015-0.549l-0.589,0L92.057,6.506z" fill="#FFFFFF"></path>
<path d="M98.554,2.263c0.435,0.124,1.04,0.093,1.476,0.145c0.759,0.072,1.316,0.265,1.741,0.66
		c0.589,0.498,0.797,1.34,0.794,2.292c-0.002,1.893-0.836,4.301-3.111,4.298c-1.259-0.001-2.017-0.772-2.016-2.059
		c0.001-1.458,1.028-3.005,2.611-3.002c0.676,0,1.102,0.326,1.302,0.812h0.044c0-0.1,0-0.223,0.009-0.294
		c0-0.375-0.131-0.82-0.435-1.083c-0.334-0.315-0.811-0.417-1.428-0.458c-0.314-0.022-0.617-0.042-0.974-0.114L98.554,2.263z
		 M100.896,6.692c0-0.486-0.191-1.014-0.739-1.015c-0.819-0.001-1.227,1.173-1.21,1.944c-0.001,0.506,0.203,0.961,0.718,0.962
		C100.457,8.584,100.882,7.35,100.896,6.692z" fill="#FFFFFF"></path>
<path d="M107.989,6.532c-0.002,1.812-1.24,3.138-2.963,3.135c-1.254-0.004-2.094-0.824-2.093-2.048
		c0.003-1.723,1.198-3.129,2.963-3.125C107.222,4.496,107.991,5.408,107.989,6.532z M104.442,7.591
		c-0.003,0.576,0.281,0.96,0.791,0.961c0.797,0.001,1.244-1.162,1.245-2.011c0.005-0.458-0.19-0.943-0.776-0.945
		C104.862,5.596,104.434,6.819,104.442,7.591z" fill="#FFFFFF"></path>
<path d="M111.303,4.613l0.175,1.925c0.03,0.305,0.06,0.718,0.091,1.165h0.021c0.132-0.283,0.398-0.84,0.659-1.337
		l0.914-1.75l1.856,0.004l-0.67,4.949l-1.346-0.002l0.307-1.985c0.07-0.424,0.194-1.152,0.278-1.649h-0.04
		c-0.153,0.354-0.428,0.921-0.733,1.528l-1.058,2.023l-1.104-0.001l-0.197-1.966c-0.051-0.556-0.103-1.155-0.119-1.6h-0.039
		c-0.124,0.537-0.277,1.275-0.377,1.691l-0.48,1.954l-1.296-0.001l1.313-4.951L111.303,4.613z" fill="#FFFFFF"></path>
<path d="M118.561,9.577c0.009-0.294,0.041-0.628,0.07-0.982h-0.029c-0.456,0.821-1.084,1.092-1.662,1.092
		c-0.89-0.002-1.499-0.691-1.496-1.724c0.002-1.671,1.109-3.452,3.551-3.448c0.589,0,1.224,0.113,1.638,0.247l-0.53,2.592
		c-0.118,0.635-0.211,1.609-0.194,2.226L118.561,9.577z M118.993,5.659c-0.114-0.021-0.254-0.04-0.396-0.042
		c-0.941-0.001-1.633,1.153-1.635,2.074c-0.001,0.486,0.192,0.821,0.599,0.823c0.434,0,0.974-0.496,1.195-1.711L118.993,5.659z" fill="#FFFFFF"></path>
<path d="M124.337,4.635l0.298,2.157c0.072,0.506,0.12,0.861,0.164,1.175h0.019c0.111-0.294,0.221-0.618,0.437-1.154
		l0.904-2.175l1.537,0.002l-1.774,3.551c-0.663,1.314-1.249,2.216-1.912,2.834c-0.575,0.544-1.265,0.786-1.587,0.836l-0.324-1.246
		c0.234-0.069,0.558-0.191,0.841-0.394c0.335-0.233,0.62-0.524,0.802-0.859c0.049-0.07,0.049-0.13,0.031-0.243l-0.974-4.488
		L124.337,4.635z" fill="#FFFFFF"></path>
<path d="M128.562,2.312c0.434,0.123,1.039,0.093,1.475,0.144c0.762,0.073,1.316,0.266,1.742,0.661
		c0.587,0.497,0.8,1.34,0.799,2.291c-0.007,1.894-0.838,4.302-3.117,4.298c-1.256-0.002-2.017-0.772-2.015-2.059
		c0.001-1.458,1.028-3.005,2.61-3.003c0.68,0.001,1.103,0.326,1.305,0.812h0.04c0-0.1,0-0.222,0.01-0.294
		c0-0.375-0.13-0.82-0.435-1.083c-0.33-0.313-0.81-0.417-1.425-0.458c-0.314-0.021-0.618-0.041-0.972-0.114L128.562,2.312z
		 M130.902,6.74c0-0.485-0.19-1.012-0.74-1.012c-0.817-0.003-1.225,1.173-1.205,1.942c-0.001,0.506,0.199,0.961,0.718,0.964
		C130.464,8.635,130.893,7.4,130.902,6.74z" fill="#FFFFFF"></path>
<path d="M137.999,6.581c-0.003,1.812-1.242,3.137-2.964,3.135c-1.254-0.002-2.094-0.825-2.093-2.049
		c0.003-1.723,1.201-3.129,2.962-3.125C137.233,4.543,138.001,5.456,137.999,6.581z M134.454,7.639
		c-0.001,0.577,0.281,0.961,0.788,0.961c0.798,0.003,1.248-1.162,1.249-2.011c0.002-0.458-0.191-0.944-0.779-0.945
		C134.872,5.643,134.442,6.869,134.454,7.639z" fill="#FFFFFF"></path>
<path d="M143.733,3.542c-0.266,0.088-0.571,0.119-0.869,0.149c-0.751,0.071-1.514,0.12-2.151,0.728
		c-0.313,0.302-0.581,0.787-0.681,1.172h0.052c0.406-0.576,0.965-0.931,1.67-0.929c1.126,0.003,1.752,0.854,1.741,1.947
		c-0.018,1.641-1.142,3.116-2.871,3.113c-1.255-0.001-2.013-0.863-2.012-2.423c0.004-1.427,0.419-2.733,1.27-3.602
		c0.896-0.931,1.866-1.101,3.082-1.201c0.354-0.029,0.719-0.079,0.982-0.16L143.733,3.542z M141.986,6.708
		c0-0.464-0.189-1.002-0.717-1.002c-0.306-0.001-0.579,0.19-0.781,0.464c-0.284,0.355-0.449,0.869-0.451,1.408
		c-0.001,0.558,0.223,1.074,0.749,1.075C141.627,8.653,141.985,7.457,141.986,6.708z" fill="#FFFFFF"></path>
<path d="M146.157,4.67l-0.347,1.82l1.508,0.004l0.347-1.822l1.46,0.002l-0.948,4.951l-1.459-0.001l0.385-2.005
		l-1.507-0.004l-0.378,2.006l-1.459-0.002l0.938-4.951L146.157,4.67z" fill="#FFFFFF"></path>
<path d="M153.438,9.349c-0.574,0.293-1.294,0.384-1.843,0.383c-1.416-0.002-2.142-0.805-2.141-2.09
		c0.003-1.508,1.098-3.078,2.889-3.075c1.002,0.001,1.722,0.561,1.721,1.482c-0.003,1.265-1.228,1.719-3.216,1.666
		c0,0.142,0.053,0.365,0.152,0.506c0.19,0.254,0.526,0.386,0.955,0.387c0.534,0.001,0.988-0.12,1.385-0.312L153.438,9.349z
		 M152.158,5.631c-0.68-0.001-1.064,0.555-1.164,1.022c1.132,0.01,1.698-0.15,1.7-0.594C152.694,5.806,152.493,5.631,152.158,5.631z
		" fill="#FFFFFF"></path>
<path d="M158.359,9.358c-0.58,0.292-1.3,0.381-1.844,0.381c-1.421-0.002-2.146-0.803-2.146-2.089
		c0.003-1.509,1.099-3.078,2.89-3.075c1.007,0.002,1.726,0.561,1.724,1.483c-0.007,1.265-1.23,1.719-3.215,1.664
		c0,0.142,0.048,0.366,0.153,0.508c0.191,0.253,0.521,0.384,0.949,0.384c0.536,0.001,0.993-0.118,1.385-0.312L158.359,9.358z
		 M157.079,5.64c-0.68-0.002-1.064,0.553-1.17,1.019c1.138,0.013,1.705-0.148,1.706-0.594C157.615,5.812,157.41,5.641,157.079,5.64z
		" fill="#FFFFFF"></path>
</g>
</svg>